<?xml version="1.0" standalone="no"?>
<!DOCTYPE svg PUBLIC "-//W3C//DTD SVG 20010904//EN"
 "http://www.w3.org/TR/2001/REC-SVG-20010904/DTD/svg10.dtd">
<svg version="1.0" xmlns="http://www.w3.org/2000/svg"
 width="700.000000pt" height="700.000000pt" viewBox="0 0 700.000000 700.000000"
 preserveAspectRatio="xMidYMid meet">
<metadata>
Created by potrace 1.14, written by Peter Selinger 2001-2017
</metadata>
<g transform="translate(0.000000,700.000000) scale(0.100000,-0.100000)"
fill="#000000" stroke="none">
<path d="M3192 5193 c-55 -27 -49 -11 -162 -448 -28 -110 -57 -220 -65 -245
-8 -25 -16 -56 -19 -70 -4 -23 -16 -72 -102 -391 -19 -69 -34 -131 -34 -137 0
-9 33 -18 105 -28 38 -5 270 -45 300 -51 29 -6 -27 -21 -275 -74 -30 -7 -84
-19 -119 -28 l-64 -16 -53 -205 c-30 -113 -58 -221 -64 -240 -41 -141 -156
-596 -151 -602 3 -3 24 -9 46 -12 22 -3 72 -10 110 -15 39 -6 93 -13 120 -16
28 -3 59 -8 70 -10 11 -2 43 -7 70 -10 28 -3 75 -10 105 -16 30 -5 79 -11 109
-14 30 -3 57 -7 61 -10 3 -2 25 -5 48 -6 23 -2 42 -6 42 -10 0 -6 -20 -11
-110 -24 -40 -6 -163 -25 -190 -30 -84 -14 -168 -27 -185 -29 -11 -2 -33 -6
-50 -9 -16 -4 -52 -9 -80 -13 -65 -8 -72 -9 -185 -29 -92 -16 -115 -26 -667
-302 -315 -157 -573 -286 -573 -288 0 -4 339 12 430 20 25 2 97 7 160 10 63 3
126 8 140 10 14 2 68 7 120 10 52 4 97 8 100 10 3 2 39 6 80 10 41 4 77 8 80
10 3 2 34 6 70 10 36 4 79 9 95 11 98 12 280 33 338 39 37 3 76 8 86 10 9 2
59 6 111 10 52 4 97 8 100 10 3 2 48 6 100 10 52 4 97 8 100 10 3 2 48 6 101
9 53 4 105 8 115 10 20 4 108 13 209 21 33 3 76 7 95 10 19 2 71 7 115 11 44
3 88 8 97 9 9 2 49 6 90 10 40 3 80 8 88 10 8 2 49 7 90 10 41 4 77 8 80 10 3
2 39 6 80 10 41 4 77 8 80 10 3 2 34 6 70 10 36 4 74 9 85 11 20 4 71 11 140
20 118 15 363 138 710 357 61 39 122 77 137 86 16 9 28 19 28 22 0 3 -75 7
-167 9 -185 3 -211 4 -623 15 -157 4 -305 8 -330 9 -25 0 -50 4 -57 9 -6 4
-78 126 -160 271 l-148 263 -272 79 c-149 44 -270 80 -268 82 2 2 18 5 36 7
19 3 50 7 69 10 19 3 53 8 75 10 22 3 51 8 65 10 14 3 45 7 70 10 25 3 57 8
71 11 l27 5 -75 132 c-41 73 -86 152 -100 177 -14 25 -42 74 -63 110 -20 36
-50 88 -65 115 -62 113 -100 175 -106 175 -3 0 -62 31 -130 68 -68 38 -151 83
-184 101 l-60 32 60 -6 c33 -3 69 -8 80 -10 24 -6 66 -13 115 -21 19 -3 60 -9
90 -14 30 -5 73 -12 95 -15 22 -3 81 -12 130 -20 50 -8 153 -24 230 -35 77
-12 151 -23 165 -25 14 -3 43 -7 65 -10 22 -3 64 -10 94 -15 74 -13 92 -13 66
2 -11 6 -22 14 -25 18 -3 3 -45 39 -95 79 -49 39 -106 85 -125 100 -19 16
-123 99 -230 185 -107 86 -202 162 -210 169 -170 140 -584 467 -593 468 -7 0
-19 2 -28 4 -9 1 -30 -4 -47 -12z"/>
</g>
</svg>
