<?xml version="1.0" standalone="no"?>
<!DOCTYPE svg PUBLIC "-//W3C//DTD SVG 20010904//EN"
 "http://www.w3.org/TR/2001/REC-SVG-20010904/DTD/svg10.dtd">
<svg version="1.0" xmlns="http://www.w3.org/2000/svg"
 width="700.000000pt" height="700.000000pt" viewBox="0 0 700.000000 700.000000"
 preserveAspectRatio="xMidYMid meet">
<metadata>
Created by potrace 1.14, written by Peter Selinger 2001-2017
</metadata>
<g transform="translate(0.000000,700.000000) scale(0.100000,-0.100000)"
fill="#000000" stroke="none">
<path d="M3043 6089 c-57 -28 -88 -78 -116 -189 -14 -52 -36 -138 -50 -190
-14 -52 -44 -165 -66 -250 -22 -85 -68 -258 -101 -385 -33 -126 -63 -241 -66
-255 -3 -14 -13 -54 -24 -90 -24 -85 -128 -485 -150 -577 l-17 -72 51 -6 c28
-4 60 -9 71 -11 36 -7 139 -25 200 -34 106 -17 198 -33 297 -52 l63 -12 -125
-27 c-69 -16 -139 -30 -156 -33 -17 -3 -37 -8 -45 -10 -8 -3 -25 -7 -39 -10
-64 -10 -367 -79 -380 -85 -13 -7 -32 -57 -45 -116 -2 -11 -13 -54 -24 -95
-32 -120 -122 -464 -126 -480 -1 -8 -20 -78 -40 -155 -20 -77 -50 -190 -66
-250 -91 -348 -138 -530 -136 -531 2 -2 59 -10 132 -20 17 -2 46 -6 65 -9 35
-6 52 -8 145 -20 28 -3 61 -8 75 -10 14 -3 45 -7 70 -10 25 -3 56 -7 70 -10
14 -2 43 -7 65 -10 37 -4 276 -38 355 -49 182 -27 249 -36 260 -36 8 0 11 -2
8 -5 -4 -5 -346 -62 -478 -80 -14 -2 -70 -11 -125 -20 -55 -9 -115 -18 -134
-21 -18 -3 -42 -7 -51 -9 -10 -2 -40 -7 -67 -11 -26 -3 -57 -8 -68 -10 -27 -6
-73 -13 -115 -18 -19 -3 -73 -12 -120 -20 -47 -8 -121 -20 -165 -26 -76 -12
-128 -37 -972 -457 -491 -245 -893 -446 -893 -448 0 -2 24 -1 52 0 29 2 111 7
183 10 72 3 155 8 185 10 30 2 109 7 175 10 131 7 222 12 330 20 39 2 106 7
150 10 44 3 98 8 120 10 22 2 76 7 120 10 82 6 113 9 250 26 75 9 106 13 180
24 54 8 419 54 480 60 33 3 76 8 95 11 42 5 108 12 170 19 25 2 70 7 100 11
54 5 70 7 200 19 36 3 81 8 100 10 19 2 64 7 100 10 36 3 81 8 100 10 19 2 67
7 105 10 39 3 88 7 110 10 22 2 72 7 110 10 39 3 90 8 114 11 25 3 70 7 100
10 31 2 76 6 101 9 52 6 118 12 210 20 36 3 85 8 110 10 25 2 70 7 100 10 30
3 75 7 100 10 25 3 70 8 100 10 30 3 71 7 90 10 19 2 60 7 90 10 30 3 71 8 90
10 19 3 60 7 90 10 30 3 91 10 135 16 107 13 140 17 205 24 30 3 66 8 80 10
14 2 50 7 80 10 30 3 62 8 70 10 8 2 38 6 65 10 63 8 99 13 210 30 50 8 107
16 128 19 101 12 358 131 629 291 9 5 52 31 95 56 43 25 89 52 102 60 81 47
432 268 456 286 l30 22 -95 2 c-52 0 -140 2 -195 4 -55 2 -219 6 -365 9 -146
4 -319 9 -385 11 -66 2 -239 7 -385 11 -257 6 -388 10 -402 13 -3 0 -29 40
-56 89 -27 48 -106 186 -174 307 -129 227 -160 282 -204 363 -38 69 -50 77
-149 105 -49 14 -214 62 -365 107 -151 44 -294 86 -318 92 -59 15 -51 21 43
33 22 3 67 10 100 15 33 5 78 12 100 15 22 2 51 7 65 9 14 3 79 12 145 21 66
10 123 20 128 24 4 4 -25 63 -64 132 -39 68 -85 149 -102 179 -16 30 -67 120
-112 200 -46 80 -95 168 -110 195 -38 68 -58 103 -83 145 -38 65 -83 145 -103
185 -19 36 -38 50 -186 130 -91 50 -195 107 -231 127 -37 21 -80 44 -97 52
-55 28 -120 66 -111 66 4 0 90 -14 189 -31 100 -17 196 -33 212 -35 17 -3 68
-11 115 -19 47 -8 130 -21 185 -29 55 -8 161 -24 235 -36 74 -11 153 -23 175
-26 22 -2 47 -7 55 -9 8 -2 38 -7 65 -10 28 -3 57 -7 65 -10 8 -2 38 -7 65
-10 47 -5 69 -8 140 -20 17 -3 46 -8 65 -10 19 -3 50 -8 68 -11 17 -3 49 -7
70 -9 20 -3 48 -7 62 -10 113 -24 114 -26 -132 172 -128 102 -235 189 -238
192 -3 4 -117 96 -255 205 -137 110 -259 208 -270 217 -92 82 -967 775 -992
785 -45 19 -81 17 -130 -7z"/>
</g>
</svg>
