<?xml version="1.0" encoding="UTF-8"?>
<svg version="1.1" viewBox="0 0 183 183" xmlns="http://www.w3.org/2000/svg">
    <g fill="#F7B500" fill-rule="evenodd">
        <path transform="translate(110.5 90.659) rotate(45) translate(-110.5 -90.659)" d="m110.5 123.18-43.888 19.271c-3.0341 1.3322-6.5737-0.047417-7.906-3.0815-0.67501-1.5373-0.67501-3.2871 0-4.8244l19.271-43.888-19.271-43.888c-1.3322-3.0341 0.047416-6.5737 3.0815-7.906 1.5373-0.67501 3.2871-0.67501 4.8244 0l43.888 19.271 43.888-19.271c3.0341-1.3322 6.5737 0.047416 7.906 3.0815 0.67501 1.5373 0.67501 3.2871 0 4.8244l-19.271 43.888 19.271 43.888c1.3322 3.0341-0.047416 6.5737-3.0815 7.906-1.5373 0.67501-3.2871 0.67501-4.8244 0l-43.888-19.271z"/>
        <path transform="translate(32.5 31.659) rotate(45) translate(-32.5 -31.659)" d="m32.5 48.318-15.604 6.8514c-3.0341 1.3322-6.5737-0.047416-7.906-3.0815-0.67501-1.5373-0.67501-3.2871 0-4.8244l6.8514-15.604-6.8514-15.604c-1.3322-3.0341 0.047416-6.5737 3.0815-7.906 1.5373-0.67501 3.2871-0.67501 4.8244 0l15.604 6.8514 15.604-6.8514c3.0341-1.3322 6.5737 0.047416 7.906 3.0815 0.67501 1.5373 0.67501 3.2871 0 4.8244l-6.8514 15.604 6.8514 15.604c1.3322 3.0341-0.047416 6.5737-3.0815 7.906-1.5373 0.67501-3.2871 0.67501-4.8244 0l-15.604-6.8514z"/>
        <path transform="translate(38.5 149.66) rotate(45) translate(-38.5 -149.66)" d="m38.5 166.32-15.604 6.8514c-3.0341 1.3322-6.5737-0.047416-7.906-3.0815-0.67501-1.5373-0.67501-3.2871 0-4.8244l6.8514-15.604-6.8514-15.604c-1.3322-3.0341 0.047416-6.5737 3.0815-7.906 1.5373-0.67501 3.2871-0.67501 4.8244 0l15.604 6.8514 15.604-6.8514c3.0341-1.3322 6.5737 0.047416 7.906 3.0815 0.67501 1.5373 0.67501 3.2871 0 4.8244l-6.8514 15.604 6.8514 15.604c1.3322 3.0341-0.047416 6.5737-3.0815 7.906-1.5373 0.67501-3.2871 0.67501-4.8244 0l-15.604-6.8514z"/>
    </g>
</svg>
